<?xml version="1.0" standalone="no"?>
<!DOCTYPE svg PUBLIC "-//W3C//DTD SVG 20010904//EN"
 "http://www.w3.org/TR/2001/REC-SVG-20010904/DTD/svg10.dtd">
<svg version="1.0" xmlns="http://www.w3.org/2000/svg"
 width="512.000000pt" height="512.000000pt" viewBox="0 0 512.000000 512.000000"
 preserveAspectRatio="xMidYMid meet">

<g transform="translate(0.000000,512.000000) scale(0.100000,-0.100000)"
fill="#000000" stroke="none">
<path d="M2400 4875 c-333 -71 -585 -304 -681 -630 -30 -102 -37 -295 -15
-405 31 -155 103 -296 218 -427 60 -69 148 -216 148 -247 0 -6 -22 -23 -49
-38 -130 -71 -118 -264 19 -321 l34 -15 -42 -21 c-106 -54 -136 -190 -60 -277
48 -54 75 -64 181 -64 l94 0 7 -41 c17 -104 95 -185 199 -204 l37 -7 0 -399
c0 -220 -3 -399 -6 -399 -3 0 -36 25 -72 57 l-67 56 -12 95 c-53 414 -235 658
-553 743 -184 48 -548 29 -580 -31 -26 -48 1 -262 51 -415 115 -348 353 -516
734 -519 72 -1 162 2 200 6 l70 8 118 -101 c96 -83 117 -106 117 -128 0 -26
-4 -28 -76 -44 -149 -32 -296 -133 -350 -240 -21 -41 -29 -48 -47 -44 -152 37
-333 35 -431 -4 -61 -24 -151 -97 -175 -143 -12 -22 -21 -26 -58 -26 -69 0
-192 -29 -260 -61 -118 -56 -203 -169 -203 -271 0 -35 6 -54 20 -68 20 -20 33
-20 1650 -20 1617 0 1630 0 1650 20 15 15 20 33 20 69 0 170 -181 306 -440
328 -74 6 -76 7 -117 53 -43 48 -127 99 -210 127 -35 12 -88 16 -195 17 l-147
1 -29 45 c-76 119 -234 208 -407 229 l-50 6 -3 85 -2 85 85 48 85 48 102 -17
c74 -12 132 -15 217 -11 400 19 624 183 735 535 48 153 71 355 46 402 -21 39
-194 65 -375 57 -321 -15 -530 -143 -655 -400 -42 -87 -84 -230 -96 -325 -10
-84 -17 -96 -78 -131 -31 -17 -58 -31 -61 -31 -3 0 -4 161 -3 357 l3 357 34 8
c84 22 154 100 169 189 l7 44 106 5 c96 5 109 7 142 33 51 38 71 81 71 148 1
75 -36 132 -102 162 l-47 20 31 9 c61 16 122 101 123 173 1 44 -32 109 -72
140 -34 28 -35 29 -22 65 25 70 65 139 117 200 126 148 198 275 233 410 23 90
31 262 16 356 -56 346 -314 630 -651 719 -88 23 -304 29 -390 10z m338 -151
c41 -9 114 -36 165 -61 169 -84 317 -261 371 -443 46 -153 40 -318 -17 -469
-36 -96 -79 -165 -164 -262 -73 -85 -127 -175 -155 -261 l-22 -68 -346 0 -347
0 -18 60 c-26 85 -83 183 -162 275 -91 107 -128 167 -163 263 -101 278 -30
575 187 783 183 175 411 237 671 183z m-963 -2544 c169 -52 278 -160 348 -345
25 -64 60 -195 52 -195 -2 0 -38 29 -81 65 -85 71 -119 80 -154 45 -12 -12
-20 -33 -20 -54 0 -32 9 -42 85 -107 47 -39 85 -74 85 -77 0 -11 -258 8 -314
23 -151 42 -260 131 -334 272 -45 88 -86 225 -97 327 l-7 65 33 5 c110 19 302
7 404 -24z m1963 24 c28 -8 29 -36 3 -159 -47 -229 -151 -389 -302 -465 -86
-44 -163 -61 -304 -66 l-130 -6 110 65 c177 105 199 120 209 150 8 22 6 32
-11 55 -37 49 -65 43 -233 -54 -83 -48 -152 -85 -154 -83 -10 10 47 191 84
266 76 153 202 251 371 287 65 15 314 21 357 10z m-943 -1479 c31 -30 32 -66
2 -101 -45 -52 -127 -24 -129 45 -2 70 78 106 127 56z m-485 -75 c12 -12 20
-33 20 -55 0 -46 -29 -75 -74 -75 -39 0 -76 37 -76 75 0 12 9 34 21 49 26 33
79 36 109 6z m-590 -150 c26 -49 -11 -120 -63 -120 -81 0 -108 114 -34 145 36
15 82 3 97 -25z m1679 16 c35 -28 32 -93 -7 -122 -27 -21 -70 -16 -97 11 -68
67 28 170 104 111z"/>
<path d="M2497 4402 c-9 -10 -17 -25 -17 -34 0 -23 -88 -54 -111 -39 -31 19
-53 13 -92 -27 -38 -38 -48 -77 -26 -99 20 -20 -17 -98 -54 -114 -32 -14 -32
-15 -32 -84 0 -69 0 -70 31 -79 38 -11 72 -82 55 -115 -19 -34 -12 -56 27 -94
39 -38 77 -48 99 -26 9 9 23 7 56 -7 34 -14 47 -26 56 -51 10 -26 19 -34 48
-39 20 -4 52 -3 72 2 28 7 38 16 45 40 11 38 82 72 115 55 34 -19 56 -12 94
27 39 39 44 60 26 93 -17 32 15 100 54 119 31 15 32 17 32 80 0 63 -1 65 -32
80 -39 19 -71 87 -54 119 19 34 12 56 -27 94 -39 39 -60 44 -93 26 -32 -17
-103 15 -120 54 -13 30 -17 32 -75 35 -48 2 -63 -1 -77 -16z m153 -234 c129
-66 132 -243 5 -315 -51 -29 -109 -29 -165 0 -131 66 -132 245 -1 314 56 29
104 29 161 1z"/>
</g>
</svg>
