<?xml version="1.0" standalone="no"?>
<!DOCTYPE svg PUBLIC "-//W3C//DTD SVG 20010904//EN"
 "http://www.w3.org/TR/2001/REC-SVG-20010904/DTD/svg10.dtd">
<svg version="1.0" xmlns="http://www.w3.org/2000/svg"
 width="512.000000pt" height="512.000000pt" viewBox="0 0 512.000000 512.000000"
 preserveAspectRatio="xMidYMid meet">

<g transform="translate(0.000000,512.000000) scale(0.100000,-0.100000)"
fill="#000000" stroke="none">
<path d="M2397 5105 c-342 -65 -617 -321 -708 -660 -31 -115 -31 -336 -1 -449
30 -107 76 -206 139 -293 46 -64 50 -74 35 -82 -9 -5 -262 -118 -562 -251
-300 -133 -559 -250 -577 -259 -22 -11 -126 -141 -343 -431 -171 -228 -313
-425 -316 -437 -7 -27 0 -61 18 -85 7 -10 139 -74 293 -142 l280 -125 5 -513
c4 -431 7 -517 20 -535 10 -16 285 -143 937 -433 508 -225 932 -410 943 -410
11 0 435 185 943 410 652 290 927 417 937 433 13 18 16 104 20 535 l5 513 280
125 c154 68 286 132 293 142 18 24 25 58 18 85 -3 12 -145 209 -316 437 -217
290 -321 420 -343 431 -18 9 -277 126 -577 259 -300 133 -553 246 -562 251
-16 8 -12 16 29 72 58 78 117 203 145 304 31 116 31 326 0 442 -89 326 -326
565 -647 651 -105 28 -282 35 -388 15z m359 -213 c115 -36 203 -90 295 -182
73 -72 93 -100 132 -180 102 -211 102 -408 0 -620 -40 -84 -57 -107 -144 -192
l-99 -98 -140 0 -140 0 0 178 0 178 71 69 c139 136 156 180 95 241 -58 58 -93
48 -203 -60 l-63 -60 -62 60 c-111 108 -146 118 -204 60 -61 -61 -44 -105 95
-241 l71 -69 0 -178 0 -178 -140 0 -141 0 -97 98 c-155 154 -216 294 -217 497
0 135 13 193 73 315 38 79 59 109 127 176 109 109 208 164 360 199 80 19 250
12 331 -13z m-696 -1527 c0 -100 17 -159 64 -225 30 -41 36 -59 36 -100 0
-118 42 -223 120 -300 154 -155 405 -156 559 -2 77 77 121 185 121 299 0 45 6
61 36 103 47 66 64 125 64 225 0 50 5 87 13 97 11 15 67 -8 520 -209 279 -125
507 -229 507 -233 0 -4 -346 -161 -770 -349 l-770 -342 -770 342 c-424 188
-770 345 -770 349 0 4 228 108 508 233 452 201 508 224 520 209 7 -10 12 -47
12 -97z m800 -6 c0 -72 -21 -114 -63 -129 -41 -14 -449 -13 -480 1 -38 17 -57
60 -57 128 l0 61 300 0 300 0 0 -61z m-105 -375 c-18 -96 -119 -172 -215 -161
-86 10 -161 78 -175 160 l-7 37 202 0 202 0 -7 -36z m-1159 -445 c434 -192
792 -353 797 -358 4 -4 -97 -148 -225 -319 -189 -252 -237 -311 -253 -308 -23
4 -1576 694 -1588 705 -9 9 453 630 469 631 6 0 366 -158 800 -351z m2972 39
c128 -172 229 -315 225 -319 -12 -11 -1565 -701 -1588 -705 -16 -3 -64 56
-253 308 -128 171 -229 315 -225 319 13 13 1577 707 1593 708 8 0 120 -140
248 -311z m-1738 -883 c181 -243 273 -358 292 -366 15 -6 40 -8 55 -4 23 5
1050 456 1076 472 4 2 7 -184 7 -414 l0 -419 -792 -352 c-436 -194 -796 -352
-800 -352 -4 0 -9 225 -10 501 l-3 501 -34 30 c-28 25 -39 29 -70 24 -23 -3
-46 -17 -63 -36 l-28 -30 0 -495 c0 -272 -3 -495 -7 -495 -5 0 -365 158 -800
352 l-793 352 0 419 c0 230 3 416 8 414 44 -27 1079 -477 1097 -477 13 0 39
13 57 29 18 16 146 180 283 365 138 184 252 335 255 335 3 0 124 -159 270
-354z"/>
<path d="M2524 1710 c-12 -4 -31 -21 -44 -37 -42 -54 -3 -137 72 -149 30 -5
41 -1 69 24 28 25 34 37 34 72 0 35 -6 47 -33 71 -33 29 -60 35 -98 19z"/>
<path d="M930 4899 c-60 -24 -84 -82 -56 -137 17 -34 24 -37 304 -161 201 -89
237 -97 277 -57 36 36 42 73 19 115 -17 33 -38 44 -244 137 -248 111 -264 117
-300 103z"/>
<path d="M4130 4900 c-29 -9 -374 -162 -432 -191 -71 -36 -86 -112 -33 -165
41 -41 75 -33 312 73 251 111 257 114 273 154 30 73 -44 153 -120 129z"/>
<path d="M1350 4046 c-93 -33 -451 -200 -467 -218 -12 -13 -18 -36 -18 -65 0
-37 5 -49 28 -69 46 -40 78 -32 314 73 251 111 257 114 273 154 33 78 -47 155
-130 125z"/>
<path d="M3700 4049 c-60 -24 -84 -82 -56 -137 17 -34 24 -37 304 -161 200
-89 234 -96 279 -57 23 20 28 32 28 70 0 32 -6 51 -20 66 -20 20 -438 212
-485 223 -14 3 -36 1 -50 -4z"/>
</g>
</svg>
