<?xml version="1.0" standalone="no"?>
<!DOCTYPE svg PUBLIC "-//W3C//DTD SVG 20010904//EN"
 "http://www.w3.org/TR/2001/REC-SVG-20010904/DTD/svg10.dtd">
<svg version="1.0" xmlns="http://www.w3.org/2000/svg"
 width="512.000000pt" height="512.000000pt" viewBox="0 0 512.000000 512.000000"
 preserveAspectRatio="xMidYMid meet">

<g transform="translate(0.000000,512.000000) scale(0.100000,-0.100000)"
fill="#000000" stroke="none">
<path d="M383 5106 c-181 -44 -334 -202 -372 -384 -16 -75 -14 -197 3 -231 23
-44 52 -51 226 -51 l160 0 0 -2180 c0 -1668 3 -2185 12 -2205 26 -59 -103 -55
2005 -55 1638 0 1948 3 2005 15 108 22 193 70 279 155 76 75 110 128 153 240
21 55 21 59 24 1305 l2 1250 51 19 c62 21 132 89 161 152 65 147 3 321 -139
390 l-58 29 -595 0 -595 0 -57 -28 c-61 -30 -105 -74 -140 -140 -18 -34 -23
-58 -23 -127 0 -76 3 -91 30 -139 36 -65 94 -116 157 -139 l48 -17 2 -1250 3
-1250 25 -70 c13 -38 43 -98 66 -132 l42 -63 -1629 0 -1629 0 0 2120 0 2120
1420 0 c1552 0 1465 -3 1488 57 6 15 12 66 15 113 6 138 58 224 165 277 47 23
70 28 132 28 124 -1 214 -56 267 -163 28 -56 28 -60 33 -292 3 -129 9 -243 14
-253 10 -21 57 -47 85 -47 34 0 72 23 87 51 18 35 20 429 3 511 -39 187 -200
348 -387 387 -81 17 -3468 14 -3539 -3z m3012 -224 c-30 -46 -61 -130 -70
-194 l-7 -48 -1559 0 c-858 0 -1559 4 -1559 8 0 28 34 115 59 149 37 51 81 83
146 105 47 16 152 17 1533 18 l1482 0 -25 -38z m1491 -1556 c46 -46 46 -86 0
-132 l-34 -34 -546 0 c-401 0 -552 3 -571 12 -48 22 -68 88 -41 137 28 51 22
50 609 51 l549 0 34 -34z m-206 -1574 c0 -1344 3 -1278 -68 -1382 -164 -241
-522 -217 -652 44 l-31 61 68 6 c83 7 100 14 118 50 19 35 19 62 1 98 -20 37
-55 51 -131 51 l-65 0 0 140 0 140 180 0 180 0 32 29 c27 24 33 36 33 71 0 35
-6 47 -33 71 l-32 29 -180 0 -180 0 0 140 0 140 65 0 c38 0 78 6 94 14 66 35
66 137 0 172 -16 8 -56 14 -94 14 l-65 0 0 140 0 140 180 0 180 0 32 29 c27
24 33 36 33 71 0 35 -6 47 -33 71 l-32 29 -180 0 -180 0 0 140 0 140 65 0 c76
0 111 14 131 51 17 34 18 60 2 94 -17 38 -58 55 -133 55 l-65 0 0 180 0 180
380 0 380 0 0 -1208z"/>
<path d="M1104 3951 c-12 -5 -31 -22 -43 -37 -21 -27 -22 -31 -19 -387 l3
-359 28 -24 28 -24 359 0 c358 0 359 0 385 23 17 14 28 36 32 63 5 36 1 46
-25 75 l-30 34 -291 3 -291 3 0 284 0 285 -27 30 c-30 32 -75 45 -109 31z"/>
<path d="M4171 3946 c-87 -48 -50 -186 49 -186 51 0 100 49 100 99 0 75 -83
124 -149 87z"/>
<path d="M1835 3898 c-11 -6 -64 -53 -117 -106 l-97 -96 -45 42 c-58 53 -102
57 -147 13 -23 -23 -29 -38 -29 -71 0 -40 6 -48 82 -126 94 -97 129 -114 181
-89 42 20 301 281 312 313 11 37 -3 89 -32 112 -28 22 -76 26 -108 8z"/>
<path d="M2224 3790 c-12 -4 -31 -21 -44 -37 -29 -37 -23 -98 15 -130 l26 -23
519 0 519 0 26 23 c17 14 28 36 32 63 5 36 1 46 -25 75 l-30 34 -509 2 c-279
1 -518 -2 -529 -7z"/>
<path d="M2224 3310 c-12 -4 -31 -21 -44 -37 -29 -37 -23 -98 15 -130 l26 -23
519 0 519 0 26 23 c17 14 28 36 32 63 5 36 1 46 -25 75 l-30 34 -509 2 c-279
1 -518 -2 -529 -7z"/>
<path d="M1104 2671 c-12 -5 -31 -22 -43 -37 -21 -27 -22 -31 -19 -387 l3
-359 28 -24 28 -24 359 0 c358 0 359 0 385 23 17 14 28 36 32 63 5 36 1 46
-25 75 l-30 34 -291 3 -291 3 0 284 0 285 -27 30 c-30 32 -75 45 -109 31z"/>
<path d="M1835 2618 c-11 -6 -64 -53 -117 -106 l-97 -96 -45 42 c-58 53 -102
57 -147 13 -23 -23 -29 -38 -29 -71 0 -40 6 -48 82 -126 94 -97 129 -114 181
-89 42 20 301 281 312 313 11 37 -3 89 -32 112 -28 22 -76 26 -108 8z"/>
<path d="M2224 2510 c-12 -4 -31 -21 -44 -37 -29 -37 -23 -98 15 -130 l26 -23
519 0 519 0 26 23 c17 14 28 36 32 63 5 36 1 46 -25 75 l-30 34 -509 2 c-279
1 -518 -2 -529 -7z"/>
<path d="M2224 2030 c-12 -4 -31 -21 -44 -37 -29 -37 -23 -98 15 -130 l26 -23
519 0 519 0 26 23 c17 14 28 36 32 63 5 36 1 46 -25 75 l-30 34 -509 2 c-279
1 -518 -2 -529 -7z"/>
<path d="M1104 1391 c-12 -5 -31 -22 -43 -37 -21 -27 -22 -31 -19 -387 l3
-359 28 -24 28 -24 359 0 c358 0 359 0 385 23 17 14 28 36 32 63 5 36 1 46
-25 75 l-30 34 -291 3 -291 3 0 284 0 285 -27 30 c-30 32 -75 45 -109 31z"/>
<path d="M1835 1338 c-11 -6 -64 -53 -117 -106 l-97 -96 -45 42 c-58 53 -102
57 -147 13 -23 -23 -29 -38 -29 -71 0 -40 6 -48 82 -126 94 -97 129 -114 181
-89 42 20 301 281 312 313 11 37 -3 89 -32 112 -28 22 -76 26 -108 8z"/>
<path d="M2224 1230 c-12 -4 -31 -21 -44 -37 -29 -37 -23 -98 15 -130 l26 -23
519 0 519 0 26 23 c17 14 28 36 32 63 5 36 1 46 -25 75 l-30 34 -509 2 c-279
1 -518 -2 -529 -7z"/>
<path d="M2224 750 c-12 -4 -31 -21 -44 -37 -29 -37 -23 -98 15 -130 l26 -23
519 0 519 0 26 23 c17 14 28 36 32 63 5 36 1 46 -25 75 l-30 34 -509 2 c-279
1 -518 -2 -529 -7z"/>
</g>
</svg>
