<?xml version="1.0" standalone="no"?>
<!DOCTYPE svg PUBLIC "-//W3C//DTD SVG 20010904//EN"
 "http://www.w3.org/TR/2001/REC-SVG-20010904/DTD/svg10.dtd">
<svg version="1.0" xmlns="http://www.w3.org/2000/svg"
 width="512.000000pt" height="512.000000pt" viewBox="0 0 512.000000 512.000000"
 preserveAspectRatio="xMidYMid meet">

<g transform="translate(0.000000,512.000000) scale(0.100000,-0.100000)"
fill="#000000" stroke="none">
<path d="M2505 5101 c-16 -10 -81 -70 -142 -134 -107 -110 -113 -118 -113
-157 0 -33 6 -48 29 -71 41 -41 93 -40 144 2 l37 30 0 -280 0 -281 29 -32 c24
-27 36 -33 71 -33 35 0 47 6 71 33 l29 32 0 281 0 280 37 -30 c51 -42 103 -43
144 -2 23 23 29 38 29 71 0 40 -6 47 -117 162 -152 154 -182 170 -248 129z"/>
<path d="M754 4366 l-34 -34 0 -176 c0 -224 13 -256 104 -256 55 0 87 35 94
99 l5 52 167 -165 c167 -165 168 -166 212 -166 63 0 98 35 98 98 0 44 -1 45
-166 212 l-165 167 52 5 c64 7 99 39 99 94 0 91 -32 104 -256 104 l-176 0 -34
-34z"/>
<path d="M3948 4384 c-35 -18 -48 -43 -48 -88 0 -55 35 -87 99 -94 l52 -5
-165 -167 c-165 -167 -166 -168 -166 -212 0 -63 35 -98 98 -98 44 0 45 1 212
166 l167 165 5 -52 c7 -64 39 -99 94 -99 91 0 104 32 104 256 l0 176 -34 34
-34 34 -178 0 c-138 -1 -185 -4 -206 -16z"/>
<path d="M2355 3990 c-322 -50 -599 -194 -828 -429 -196 -201 -314 -421 -378
-700 -26 -112 -36 -363 -20 -486 42 -315 182 -601 404 -826 142 -144 301 -250
487 -326 123 -50 166 -54 209 -17 26 21 31 33 31 67 -1 60 -22 81 -126 120
-121 47 -183 79 -284 148 -551 376 -697 1145 -325 1705 231 346 619 554 1035
554 324 0 614 -115 850 -337 347 -327 475 -816 335 -1280 -48 -157 -154 -340
-266 -459 -150 -161 -286 -251 -493 -331 -104 -39 -125 -60 -126 -120 0 -34 5
-46 31 -67 43 -37 86 -33 209 17 439 180 758 554 867 1019 25 102 27 132 28
313 0 159 -4 217 -19 285 -63 287 -183 514 -382 720 -201 208 -434 341 -711
406 -89 21 -139 26 -288 29 -99 2 -207 0 -240 -5z"/>
<path d="M2530 3433 c-51 -20 -701 -417 -710 -433 -14 -26 -14 -854 0 -880 6
-11 167 -113 358 -227 273 -163 354 -207 382 -207 28 0 106 42 382 207 191
114 352 216 358 226 14 27 14 855 0 882 -13 24 -689 428 -727 434 -15 2 -35 1
-43 -2z m256 -345 c123 -73 224 -135 224 -138 0 -10 -433 -264 -450 -264 -16
0 -450 255 -450 264 0 4 439 268 449 269 1 1 104 -59 227 -131z m-509 -475
l183 -108 0 -273 0 -273 -42 25 c-24 14 -125 74 -225 133 l-183 108 0 273 0
273 43 -25 c23 -14 124 -74 224 -133z m833 -115 l-1 -273 -176 -105 c-97 -58
-198 -118 -225 -133 l-48 -29 0 274 1 273 222 132 c122 73 223 132 225 132 1
1 2 -122 2 -271z"/>
<path d="M139 2743 c-130 -130 -147 -157 -135 -210 5 -17 57 -78 135 -155 124
-123 130 -128 170 -128 34 0 49 6 72 29 41 41 40 93 -2 144 l-30 37 280 0 281
0 32 29 c27 24 33 36 33 71 0 35 -6 47 -33 71 l-32 29 -281 0 -280 0 30 37
c42 51 43 103 2 144 -23 23 -38 29 -72 29 -40 0 -46 -5 -170 -127z"/>
<path d="M4739 2841 c-41 -41 -40 -93 2 -144 l30 -37 -280 0 -281 0 -32 -29
c-27 -24 -33 -36 -33 -71 0 -35 6 -47 33 -71 l32 -29 281 0 280 0 -30 -37
c-42 -51 -43 -103 -2 -144 23 -23 38 -29 72 -29 40 0 46 5 170 128 130 129
147 156 135 210 -5 16 -57 77 -135 155 -124 122 -130 127 -170 127 -34 0 -49
-6 -72 -29z"/>
<path d="M1090 1234 l-167 -165 -5 52 c-7 64 -39 99 -94 99 -91 0 -104 -32
-104 -256 l0 -176 34 -34 34 -34 176 0 c224 0 256 13 256 104 0 55 -35 87 -99
94 l-52 5 165 167 c165 167 166 168 166 212 0 36 -6 51 -26 72 -21 20 -36 26
-72 26 -44 0 -45 -1 -212 -166z"/>
<path d="M3746 1374 c-20 -21 -26 -36 -26 -72 0 -44 1 -45 166 -212 l165 -167
-52 -5 c-64 -7 -99 -39 -99 -94 0 -91 32 -104 256 -104 l176 0 34 34 34 34 0
176 c0 224 -13 256 -104 256 -55 0 -87 -35 -94 -99 l-5 -52 -167 165 c-167
165 -168 166 -212 166 -36 0 -51 -6 -72 -26z"/>
<path d="M2524 1311 c-12 -5 -31 -22 -44 -38 -47 -60 -1 -153 76 -153 46 0 70
14 89 50 22 43 18 76 -12 110 -30 32 -75 45 -109 31z"/>
<path d="M2524 971 c-12 -5 -31 -22 -43 -37 -20 -26 -21 -36 -21 -306 l0 -279
-37 30 c-51 42 -103 43 -144 2 -23 -23 -29 -38 -29 -72 0 -40 5 -46 128 -170
77 -78 138 -130 154 -135 54 -12 81 5 211 135 122 124 127 130 127 170 0 34
-6 49 -29 72 -41 41 -93 40 -144 -2 l-37 -30 0 280 0 281 -27 30 c-30 32 -75
45 -109 31z"/>
</g>
</svg>
