<?xml version="1.0" standalone="no"?>
<!DOCTYPE svg PUBLIC "-//W3C//DTD SVG 20010904//EN"
 "http://www.w3.org/TR/2001/REC-SVG-20010904/DTD/svg10.dtd">
<svg version="1.0" xmlns="http://www.w3.org/2000/svg"
 width="512.000000pt" height="512.000000pt" viewBox="0 0 512.000000 512.000000"
 preserveAspectRatio="xMidYMid meet">

<g transform="translate(0.000000,512.000000) scale(0.100000,-0.100000)"
fill="#000000" stroke="none">
<path d="M2489 4935 c-76 -41 -51 -164 37 -181 93 -17 153 99 85 167 -33 33
-78 38 -122 14z"/>
<path d="M2010 4829 c-172 -81 -357 -242 -463 -400 -177 -266 -247 -564 -202
-859 l14 -95 -53 -55 c-118 -122 -220 -267 -302 -429 -55 -111 -122 -298 -143
-402 l-12 -57 -62 -22 c-269 -98 -515 -315 -649 -575 -87 -169 -127 -321 -135
-515 -22 -540 307 -1010 828 -1184 429 -144 874 -51 1199 251 l60 55 68 -16
c148 -35 210 -41 412 -40 183 0 219 3 333 27 l129 27 59 -54 c324 -300 770
-394 1196 -251 419 140 717 470 809 895 23 106 26 361 5 465 -83 420 -381 775
-768 915 l-62 22 -12 57 c-21 103 -87 288 -142 399 -84 168 -177 300 -310 439
l-78 81 10 58 c16 84 13 278 -4 380 -65 371 -310 706 -636 870 -106 53 -153
57 -192 19 -30 -31 -37 -62 -23 -106 9 -29 25 -41 111 -87 222 -119 369 -267
462 -470 188 -406 71 -917 -277 -1209 -196 -165 -488 -253 -740 -224 -436 51
-757 333 -871 767 -21 77 -24 112 -24 254 1 140 4 178 24 250 76 285 264 507
548 649 35 17 70 42 79 56 23 35 13 93 -21 123 -36 31 -87 28 -165 -9z m1731
-1629 c80 -96 141 -191 200 -310 44 -89 109 -265 109 -295 0 -11 -19 -12 -94
-8 -458 28 -905 -239 -1122 -670 -101 -199 -139 -373 -131 -597 7 -190 34
-298 122 -475 35 -71 63 -131 61 -132 -8 -8 -253 -33 -326 -33 -76 0 -318 25
-327 34 -2 1 20 46 48 100 121 229 163 469 128 722 -24 172 -105 378 -211 531
-115 168 -330 348 -504 422 -169 72 -364 108 -530 98 -75 -4 -94 -3 -94 8 0
31 65 206 110 297 26 54 73 135 103 180 55 83 133 178 145 178 4 0 25 -34 46
-77 123 -239 341 -437 596 -543 195 -81 461 -111 675 -76 389 64 713 305 886
659 18 37 36 66 40 65 4 -2 35 -37 70 -78z m-2284 -845 c285 -72 523 -265 657
-532 135 -269 139 -590 12 -859 -75 -157 -167 -276 -289 -372 -234 -183 -499
-253 -786 -207 -409 67 -707 335 -813 733 -32 122 -36 329 -8 461 42 207 126
368 265 507 246 249 622 354 962 269z m2600 14 c114 -15 280 -74 379 -133 267
-159 433 -428 475 -770 54 -440 -239 -894 -671 -1041 -508 -173 -1048 73
-1263 574 -152 354 -62 817 213 1092 219 219 542 323 867 278z"/>
<path d="M1170 2122 c-14 -11 -70 -103 -125 -206 l-100 -185 -198 -1 -199 0
-34 -34 -34 -34 0 -356 0 -356 29 -32 29 -33 542 -3 c600 -3 618 -1 713 60 50
32 103 91 130 144 9 17 28 78 42 135 22 83 26 119 22 175 -13 184 -157 324
-347 340 l-75 7 -1 66 c-1 169 -138 315 -308 328 -51 4 -65 2 -86 -15z m178
-264 c22 -44 23 -47 7 -119 -22 -109 -20 -135 14 -170 29 -29 31 -29 143 -29
138 0 182 -11 229 -59 52 -52 58 -92 29 -209 -26 -109 -63 -161 -128 -180 -26
-8 -128 -12 -291 -12 l-251 0 0 260 0 259 78 143 c43 79 84 153 91 166 11 21
15 22 34 10 12 -8 32 -35 45 -60z m-448 -553 l0 -225 -110 0 -110 0 0 225 0
225 110 0 110 0 0 -225z"/>
<path d="M4050 1824 l-385 -103 -150 -1 c-136 0 -155 -2 -200 -24 -60 -28
-127 -98 -146 -152 -9 -25 -14 -82 -14 -159 0 -104 3 -127 24 -172 26 -59 84
-117 140 -141 22 -9 78 -17 149 -20 107 -4 112 -6 112 -26 0 -80 84 -278 143
-334 20 -20 48 -35 70 -39 32 -5 41 -1 72 30 44 44 45 77 3 143 -65 103 -100
205 -64 191 49 -19 630 -167 655 -167 20 0 42 10 63 29 l33 29 3 451 c2 303
-1 464 -8 491 -12 44 -57 81 -95 79 -11 0 -193 -48 -405 -105z m300 -440 c0
-286 -1 -305 -17 -300 -10 3 -115 30 -233 61 -118 31 -239 63 -267 72 l-53 14
0 157 0 157 268 72 c147 39 275 71 285 72 16 1 17 -20 17 -305z m-772 4 l-3
-133 -70 -3 c-134 -6 -145 5 -145 138 0 125 5 130 133 130 l88 0 -3 -132z"/>
<path d="M2506 4535 c-45 -24 -55 -45 -56 -110 l0 -60 -50 -24 c-57 -27 -109
-79 -141 -143 -31 -59 -38 -182 -15 -242 43 -111 102 -160 287 -231 156 -61
190 -96 175 -183 -7 -44 -31 -79 -76 -109 -27 -19 -47 -23 -110 -23 -66 0 -86
4 -136 30 -96 49 -160 36 -184 -35 -10 -30 -9 -41 7 -72 21 -44 109 -96 191
-114 l52 -12 0 -47 c0 -94 35 -140 105 -140 27 0 44 8 66 29 27 27 29 35 29
99 l0 71 54 24 c70 32 135 97 172 173 26 53 29 69 29 154 0 80 -4 102 -23 138
-50 94 -127 149 -302 214 -108 40 -150 78 -150 137 0 33 7 49 33 78 29 31 41
37 88 41 49 4 59 1 108 -33 69 -47 111 -49 153 -7 35 34 40 84 13 126 -19 29
-93 80 -142 98 -30 11 -33 15 -33 56 0 54 -22 97 -60 117 -36 19 -48 19 -84 0z"/>
</g>
</svg>
