<?xml version="1.0" standalone="no"?>
<!DOCTYPE svg PUBLIC "-//W3C//DTD SVG 20010904//EN"
 "http://www.w3.org/TR/2001/REC-SVG-20010904/DTD/svg10.dtd">
<svg version="1.0" xmlns="http://www.w3.org/2000/svg"
 width="512.000000pt" height="512.000000pt" viewBox="0 0 512.000000 512.000000"
 preserveAspectRatio="xMidYMid meet">

<g transform="translate(0.000000,512.000000) scale(0.100000,-0.100000)"
fill="#000000" stroke="none">
<path d="M203 4842 c-100 -35 -171 -115 -193 -216 -8 -36 -10 -638 -8 -2096
l3 -2045 21 -46 c31 -66 78 -114 142 -146 l57 -28 950 -3 c704 -2 957 1 978 9
49 20 69 81 45 134 -26 57 13 55 -993 55 -1006 0 -967 -2 -993 55 -9 20 -12
420 -12 1685 l0 1660 2360 0 2360 0 0 -1660 c0 -1806 3 -1702 -55 -1728 -19
-9 -256 -12 -956 -12 l-931 0 -34 -34 c-46 -46 -46 -86 0 -132 l34 -34 959 2
c950 3 958 3 1004 24 66 31 114 78 146 142 l28 57 0 2075 0 2075 -28 57 c-32
64 -80 111 -146 142 l-46 21 -2320 2 c-2207 2 -2323 2 -2372 -15z m4662 -194
c51 -23 55 -45 55 -328 l0 -260 -2360 0 -2360 0 0 263 c1 280 3 297 51 323 34
19 4574 21 4614 2z"/>
<path d="M591 4446 c-87 -48 -50 -186 49 -186 51 0 100 49 100 99 0 75 -83
124 -149 87z"/>
<path d="M1031 4446 c-87 -48 -50 -186 49 -186 51 0 100 49 100 99 0 75 -83
124 -149 87z"/>
<path d="M1471 4446 c-87 -48 -50 -186 49 -186 51 0 100 49 100 99 0 75 -83
124 -149 87z"/>
<path d="M2271 4446 c-67 -37 -65 -143 4 -174 20 -9 294 -12 1126 -12 932 0
1104 2 1128 14 66 35 66 137 0 172 -40 20 -2221 21 -2258 0z"/>
<path d="M865 3571 c-92 -24 -173 -90 -215 -176 -22 -46 -25 -64 -28 -230 l-4
-180 -32 -36 c-47 -51 -84 -133 -98 -216 -21 -128 18 -274 98 -363 l33 -37 3
-679 3 -679 34 -63 c38 -70 70 -101 145 -140 43 -22 64 -26 136 -26 72 0 93 4
136 26 75 39 107 70 145 140 l34 63 3 679 3 679 33 37 c46 51 84 135 98 219
21 125 -19 273 -98 360 l-32 36 -4 180 -3 180 -34 63 c-38 70 -70 101 -143
138 -54 27 -159 40 -213 25z m159 -230 c30 -30 31 -35 34 -129 l4 -97 -122 0
-122 0 4 97 c3 87 6 99 28 123 33 36 57 46 104 41 27 -3 49 -14 70 -35z m31
-449 c47 -24 95 -73 121 -122 26 -49 26 -171 0 -220 -26 -49 -74 -98 -121
-123 -31 -17 -58 -22 -115 -22 -85 0 -133 20 -186 77 -54 57 -69 95 -69 178 0
83 15 121 69 178 31 34 70 58 116 73 41 14 142 3 185 -19z m3 -1284 l-3 -598
-33 -32 c-28 -28 -39 -33 -82 -33 -43 0 -54 5 -82 33 l-33 32 -3 598 -2 597
120 0 120 0 -2 -597z"/>
<path d="M1925 3571 c-92 -24 -173 -90 -215 -176 l-25 -50 -3 -483 -3 -483
-35 -46 c-116 -152 -135 -331 -53 -495 16 -31 42 -72 58 -91 l30 -33 3 -370 3
-369 34 -63 c38 -70 70 -101 145 -140 43 -22 64 -26 136 -26 72 0 93 4 136 26
75 39 107 70 145 140 l34 63 3 369 3 370 30 33 c16 19 40 56 54 84 83 163 68
341 -40 488 l-44 60 -3 483 -3 483 -27 51 c-40 75 -70 107 -137 143 -65 34
-164 49 -226 32z m159 -230 l31 -31 3 -408 3 -407 -121 0 -121 0 3 407 3 406
25 27 c33 36 57 46 104 41 27 -3 49 -14 70 -35z m32 -1064 c110 -57 169 -198
130 -313 -22 -66 -62 -113 -127 -149 -168 -91 -381 38 -379 229 2 103 74 207
168 243 47 17 166 12 208 -10z m-116 -692 c30 0 70 3 88 7 l33 8 -3 -295 -3
-295 -33 -32 c-28 -28 -39 -33 -82 -33 -43 0 -54 5 -82 33 l-33 32 -3 295 -3
295 33 -8 c18 -4 58 -7 88 -7z"/>
<path d="M2985 3571 c-92 -24 -173 -90 -215 -176 -22 -46 -25 -64 -28 -230
l-4 -180 -32 -36 c-47 -51 -84 -133 -98 -216 -21 -128 18 -274 98 -363 l33
-37 3 -679 3 -679 34 -63 c38 -70 70 -101 145 -140 43 -22 64 -26 136 -26 72
0 93 4 136 26 75 39 107 70 145 140 l34 63 3 679 3 679 33 37 c46 51 84 135
98 219 21 125 -19 273 -98 360 l-32 36 -4 180 -3 180 -34 63 c-38 70 -70 101
-143 138 -54 27 -159 40 -213 25z m159 -230 c30 -30 31 -35 34 -129 l4 -97
-122 0 -122 0 4 97 c3 87 6 99 28 123 33 36 57 46 104 41 27 -3 49 -14 70 -35z
m31 -449 c47 -24 95 -73 121 -122 13 -25 19 -56 19 -110 0 -83 -15 -121 -69
-178 -53 -57 -101 -77 -186 -77 -85 0 -133 20 -186 77 -54 57 -69 95 -69 178
0 83 15 121 69 178 31 34 70 58 116 73 41 14 142 3 185 -19z m3 -1284 l-3
-598 -33 -32 c-28 -28 -39 -33 -82 -33 -43 0 -54 5 -82 33 l-33 32 -3 598 -2
597 120 0 120 0 -2 -597z"/>
<path d="M4045 3571 c-92 -24 -173 -90 -215 -176 l-25 -50 -3 -483 -3 -483
-35 -46 c-116 -152 -135 -331 -53 -495 16 -31 42 -72 58 -91 l30 -33 3 -370 3
-369 34 -63 c38 -70 70 -101 145 -140 43 -22 64 -26 136 -26 72 0 93 4 136 26
75 39 107 70 145 140 l34 63 3 369 3 370 30 33 c16 19 40 56 54 84 83 163 68
341 -40 488 l-44 60 -3 483 -3 483 -27 51 c-40 75 -70 107 -137 143 -65 34
-164 49 -226 32z m159 -230 l31 -31 3 -408 3 -407 -121 0 -121 0 3 407 3 406
25 27 c33 36 57 46 104 41 27 -3 49 -14 70 -35z m32 -1064 c110 -57 169 -198
130 -313 -22 -66 -62 -113 -127 -149 -168 -91 -381 38 -379 229 2 103 74 207
168 243 47 17 166 12 208 -10z m-116 -692 c30 0 70 3 88 7 l33 8 -3 -295 -3
-295 -33 -32 c-28 -28 -39 -33 -82 -33 -43 0 -54 5 -82 33 l-33 32 -3 295 -3
295 33 -8 c18 -4 58 -7 88 -7z"/>
<path d="M2511 446 c-87 -48 -50 -186 49 -186 51 0 100 49 100 99 0 75 -83
124 -149 87z"/>
</g>
</svg>
